<svg xmlns="http://www.w3.org/2000/svg"  viewBox="0 0 50 50" width="50px" height="50px"><path d="M 2 10 A 1.0001 1.0001 0 0 0 1 11 L 1 15 A 1.0001 1.0001 0 0 0 2 16 L 11 16 L 11 41 A 1.0001 1.0001 0 0 0 12 42 L 18 42 A 1.0001 1.0001 0 0 0 19 41 L 19 16 L 34 16 C 34 16 35.291248 16.01379 36.552734 16.644531 C 37.81422 17.275274 39 18.333333 39 21 L 39 31 C 39 33.722222 37.984124 34.7939 36.986328 35.392578 C 35.988532 35.991256 35 36 35 36 L 29 36 L 29 19 A 1.0001 1.0001 0 0 0 28 18 L 22 18 A 1.0001 1.0001 0 0 0 21 19 L 21 41 A 1.0001 1.0001 0 0 0 22 42 L 37 42 C 43.615466 42 49 36.615466 49 30 L 49 22 C 49 15.681077 43.584667 10 37 10 L 2 10 z M 3 12 L 37 12 C 42.415333 12 47 16.842923 47 22 L 47 30 C 47 35.534534 42.534534 40 37 40 L 23 40 L 23 20 L 27 20 L 27 37 A 1.0001 1.0001 0 0 0 28 38 L 35 38 C 35 38 36.511468 38.0087 38.013672 37.107422 C 39.515876 36.2061 41 34.277778 41 31 L 41 21 C 41 17.666667 39.18578 15.724726 37.447266 14.855469 C 35.708752 13.986212 34 14 34 14 L 18 14 A 1.0001 1.0001 0 0 0 17 15 L 17 40 L 13 40 L 13 15 A 1.0001 1.0001 0 0 0 12 14 L 3 14 L 3 12 z"/></svg>